<?xml version="1.0" encoding="UTF-8" standalone="no"?>
<!-- Created with Inkscape (http://www.inkscape.org/) -->

<svg
   width="37.085865mm"
   height="43.341309mm"
   viewBox="0 0 37.085865 43.341309"
   version="1.1"
   id="svg1"
   xmlns="http://www.w3.org/2000/svg"
   xmlns:svg="http://www.w3.org/2000/svg">
  <defs
     id="defs1" />
     <style>
      @import url("https://fonts.googleapis.com/css?family=Lobster:400,400i,700,700i");
     </style>
  <g
     id="layer1"
     transform="translate(-138.55823,-109.54147)">
    <g
       id="g8"
       transform="translate(5.8435629,-48.655574)">
      <path
         id="cLogo-berri"
         style="fill:#ff8225;fill-opacity:1;fill-rule:nonzero;stroke:none;stroke-width:1.53531;stroke-linecap:round;stroke-linejoin:round;stroke-dasharray:none;stroke-opacity:0.909804"
         d="m 163.23753,158.24412 c -1.92638,-0.31639 -6.53223,0.83031 -9.00656,7.49781 -1.3382,3.79505 -1.89973,7.68532 -2.91144,11.52302 -0.48301,2.1596 -1.16254,4.71136 -2.03562,7.31527 -0.84575,2.52243 -1.86487,5.06779 -3.04329,7.31675 -4.33526,8.27355 -8.43827,7.53899 -10.58114,6.76177 -0.86851,-0.31503 -1.01902,-1.1078 -0.57538,-0.99995 1.55969,0.34399 2.58437,-0.86531 3.0855,-2.42561 0.50099,-1.56024 -0.16543,-3.00859 -1.53721,-3.21543 -1.12307,-0.10951 -2.48758,0.37477 -3.57308,2.46513 -2.27569,6.83329 7.18549,12.45469 14.65535,-1.89872 1.24784,-2.39769 2.30254,-5.06874 3.17124,-7.66459 0.89409,-2.67177 1.59744,-5.28296 2.12146,-7.4895 1.07947,-3.70127 1.7099,-6.5485 3.2181,-11.11178 2.78693,-8.43197 7.18951,-6.30146 8.31634,-5.09773 -1.20131,0.12059 -2.44176,0.72317 -2.92296,2.07759 -0.40236,1.16381 -0.0986,2.46911 1.28202,2.84292 1.35,0.21563 2.83818,-0.47248 3.6067,-2.06179 0.39309,-0.8079 0.58892,-1.9938 -0.26855,-2.36404 0.1024,-1.49469 -0.68624,-3.09321 -3.0015,-3.47116 z" />
      <path
         style="fill:#b43f3f;fill-opacity:1;fill-rule:nonzero;stroke:none;stroke-width:1.06184;stroke-linecap:round;stroke-linejoin:round;stroke-dasharray:none;stroke-opacity:0.909804"
         id="cLogo-outer"
         transform="matrix(0.99515441,0.09832449,-0.21183278,0.97730593,13.39746,-17.601745)"
         d="m 181.83506,166.47224 c 1.47787,0.46671 3.48704,1.40185 5.45173,3.19172 1.37816,1.25554 2.66938,2.87564 3.67906,4.87005 1.71803,3.3936 2.49406,7.64977 1.58117,12.11631 -0.0462,0.22588 -0.0962,0.44958 -0.14989,0.67107 -0.79091,3.26086 -2.59801,6.77896 -5.89664,9.33266 -1.42868,1.10604 -3.10004,1.99097 -4.96275,2.50983 -1.74963,0.48736 -3.66891,0.6509 -5.68012,0.3575 -1.9469,-0.28401 -3.79173,-0.96518 -5.46331,-1.99754 -1.65048,-1.01933 -3.11502,-2.37119 -4.31591,-3.98103 -2.46815,-3.30867 -3.71813,-7.55695 -3.3574,-11.9584 0.40158,-4.89999 2.64141,-8.78347 5.3535,-11.33309 1.64176,-1.54341 3.43643,-2.59381 5.17839,-3.25273 2.35417,-0.89049 4.52505,-1.04046 6.21699,-0.92601 -1.67859,-0.18352 -3.87665,-0.15746 -6.32748,0.60473 -1.81614,0.56481 -3.73781,1.52765 -5.54893,3.02838 -2.98399,2.47257 -5.65434,6.44232 -6.37626,11.7126 -0.64795,4.73025 0.42635,9.51231 3.02372,13.41518 1.26323,1.89816 2.86592,3.55158 4.74281,4.8433 1.90313,1.30978 4.06369,2.23077 6.39645,2.67002 2.41181,0.45413 4.76163,0.35146 6.93473,-0.17443 2.3096,-0.55893 4.38994,-1.58712 6.16358,-2.9037 4.09842,-3.04226 6.28004,-7.3386 7.07625,-11.24829 0.054,-0.26499 0.10255,-0.53212 0.14567,-0.80125 0.85959,-5.36474 -0.6441,-10.21396 -3.05363,-13.69459 -1.41891,-2.04965 -3.09696,-3.56957 -4.75383,-4.6487 -2.35079,-1.53108 -4.56007,-2.12069 -6.0579,-2.40359 z" />
      <text
         xml:space="preserve"
         style="font-style:normal;font-variant:normal;font-weight:normal;font-stretch:normal;font-size:28.9255px;font-family:'Alex Brush';-inkscape-font-specification:'Alex Brush';fill:#b43f3f;fill-opacity:1;stroke:none;stroke-width:1.28557;stroke-linecap:round;stroke-linejoin:round;stroke-dasharray:none;stroke-opacity:0.909804"
         x="238.33884"
         y="138.75948"
         id="cLogo-M"
         transform="matrix(0.835843,0.13588663,-0.45596141,1.1222693,0,0)"><tspan
           id="tspan8"
           style="font-style:normal;font-variant:normal;font-weight:normal;font-stretch:normal;font-size:28.9255px;font-family:Lobster;-inkscape-font-specification:Lobster;fill:#b43f3f;fill-opacity:1;stroke:none;stroke-width:1.28557;stroke-dasharray:none;stroke-opacity:0.909804"
           x="238.33884"
           y="138.75948">M</tspan></text>
    </g>
  </g>
</svg>
