<?xml version="1.0" encoding="UTF-8" standalone="no"?>
<!-- Created with Inkscape (http://www.inkscape.org/) -->

<svg
   width="114.39584mm"
   height="61.667057mm"
   viewBox="0 0 114.39584 61.667057"
   version="1.1"
   id="svg1"
   xmlns="http://www.w3.org/2000/svg"
   xmlns:svg="http://www.w3.org/2000/svg">
  <defs
     id="defs1" />
  <g
     id="layer1"
     transform="translate(-7.3367092,-102.66144)">
    <g
       id="g2"
       transform="translate(-6.7916885,10.312885)"
       style="fill:#b43f3f;fill-opacity:1;stroke:none">
      <path
         id="logo-berry"
         style="fill:#b43f3f;fill-opacity:1;fill-rule:nonzero;stroke:none;stroke-width:2.11061;stroke-linecap:round;stroke-linejoin:round;stroke-dasharray:none;stroke-opacity:0.909804"
         d="m 41.226215,92.348592 c -2.806471,-0.01116 -8.73705,2.434545 -9.444235,11.609808 -0.305046,5.20784 0.508177,10.37823 0.674295,15.57374 0.213423,2.90576 0.314394,6.36175 0.167778,9.92569 -0.142027,3.45242 -0.515571,6.97059 -1.231902,10.13681 -2.635243,11.64792 -8.63767,11.54533 -11.933769,10.98042 -1.335896,-0.22896 -1.869788,-1.22761 -1.209142,-1.17957 2.308235,0.12311 3.236776,-1.66056 3.294035,-3.79154 0.05709,-2.13089 -1.462301,-3.87406 -3.453204,-3.85807 -1.605483,0.0908 -3.303227,1.0032 -3.955374,3.9441 -0.363246,9.34938 15.086598,14.68826 19.587311,-5.5086 0.751832,-3.37381 1.123319,-7.06266 1.26715,-10.61519 0.14804,-3.65648 0.05585,-7.19463 -0.119842,-10.16989 -0.0161,-5.03233 -0.306316,-8.862 -0.07966,-15.10314 0.418811,-11.532373 7.409309,-9.678479 9.468203,-8.348597 -1.619843,0.406317 -3.096808,1.44627 -3.210703,3.305665 -0.08238,1.595402 0.874438,3.228042 2.945993,3.427102 1.964295,-9e-5 3.750388,-1.20292 4.167322,-3.427102 0.215288,-1.13109 0.0017,-2.712344 -1.341524,-3.015318 -0.46985,-1.963043 -2.220633,-3.875926 -5.592731,-3.886354 z" />
      <path
         d="m 30.420173,92.806374 c -8.536734,2.808136 -7.314187,11.679186 -6.88253,12.542506 0.211306,0.42261 0.316959,0.6792 0.316959,0.76976 -3.229959,0 -4.844939,-1.37349 -4.844939,-4.12047 0,-5.997019 7.713816,-12.044423 14.398977,-12.044423 1.116901,0 2.263989,0.211306 3.441264,0.633917 l -1.041435,23.862456 9.961556,-23.862456 h 6.520291 L 47.535937,123.9136 h -6.520291 l 2.897907,-20.33063 -8.512602,20.33063 h -6.203333 l 0.905596,-20.42119 -7.561726,20.42119 h -3.622384 z m 27.575426,31.378906 c -5.384755,0 -7.063648,-3.20383 -7.063648,-7.19949 0,-2.08287 0.407518,-4.37705 1.222554,-6.88253 0.766402,-2.35598 3.635443,-9.23708 11.002992,-9.23708 6.783654,0 5.280234,6.4427 3.531824,9.01068 -2.050292,3.01136 -5.47807,4.65773 -8.9654,4.89022 -0.06037,0.90559 -0.09056,1.50932 -0.09056,1.81119 0,2.6889 0.741262,3.8035 3.260146,3.8035 2.296299,0 4.363797,-0.52571 8.014524,-4.57326 h 1.539513 c -3.350705,5.58451 -7.501353,8.37677 -12.451945,8.37677 z m 0.09056,-11.59163 c 2.430139,-0.13142 4.539066,-1.94943 5.614695,-3.93935 1.240996,-2.18651 1.402533,-5.38829 -0.181119,-5.38829 -2.370609,0 -4.592873,4.84388 -5.433576,9.32764 z m 16.255483,11.59163 c -5.478627,0 -6.022214,-5.21849 -6.022214,-7.29005 0,-5.46039 3.292885,-15.84793 11.636909,-15.84793 1.233473,0 3.667664,0.25964 3.667664,2.30927 v 0.18112 l 2.21871,-10.414357 6.701411,-0.905596 -5.207177,24.451093 c -0.01736,0.0651 -0.527485,2.00818 0.226399,2.76207 0.329145,0.26331 2.204846,0.97657 3.622384,-0.72448 0.633917,-0.72448 1.131994,-1.69045 1.494233,-2.89791 h 1.901752 c -1.841379,5.40339 -4.875125,8.10509 -9.10124,8.10509 -1.237648,0 -2.248897,-0.33205 -3.033747,-0.99616 -0.754663,-0.6641 -1.222555,-1.63007 -1.403674,-2.89791 -1.336505,2.05618 -3.490135,4.16575 -6.70141,4.16575 z m 2.943187,-4.39214 c 1.088967,0 3.079384,-1.01282 3.712944,-3.75823 v -0.2264 l 2.21871,-10.36907 c -0.271679,-1.05653 -0.890503,-1.58479 -1.856472,-1.58479 -4.161444,0 -6.339172,8.77334 -6.339172,12.40666 0,1.35465 0.02483,3.53183 2.26399,3.53183 z m 20.82869,4.39214 c -5.478627,0 -6.022213,-5.21849 -6.022213,-7.29005 0,-5.46039 3.292883,-15.84793 11.636904,-15.84793 1.23346,0 3.66767,0.25964 3.66767,2.30927 v 0.18112 l 2.21871,-10.414357 6.70141,-0.905596 -5.20718,24.451093 c -0.0173,0.065 -0.5275,2.00817 0.2264,2.76207 0.32917,0.26333 2.20486,0.97655 3.62238,-0.72448 0.63392,-0.72448 1.132,-1.69045 1.49424,-2.89791 h 1.90175 c -1.84138,5.40339 -4.87513,8.10509 -9.10124,8.10509 -3.29075,0 -4.20501,-2.26723 -4.43742,-3.89407 -1.3365,2.05617 -3.49013,4.16575 -6.701411,4.16575 z m 2.943191,-4.39214 c 1.08897,0 3.07938,-1.01282 3.71294,-3.75823 v -0.2264 l 2.21871,-10.36907 c -0.27168,-1.05653 -0.8905,-1.58479 -1.85647,-1.58479 -4.16145,0 -6.339174,8.77334 -6.339174,12.40666 0,1.35465 0.02483,3.53183 2.263994,3.53183 z m 19.87781,4.39214 c -4.32602,0 -4.84493,-3.67191 -4.84493,-5.43358 0,-0.75467 0.12074,-1.73573 0.36223,-2.94319 l 4.84494,-22.685177 6.70141,-0.905596 -5.20717,24.451093 c -0.0173,0.065 -0.5275,2.00817 0.2264,2.76207 0.31366,0.25093 2.11354,0.98481 3.89406,-0.72448 0.75466,-0.75466 1.29802,-1.72063 1.63007,-2.89791 h 1.90175 c -1.1169,3.26015 -2.55076,5.47886 -4.30158,6.65613 -1.75082,1.14709 -3.48655,1.72064 -5.20718,1.72064 z m 10.68604,-22.91158 h 6.5203 l -0.58864,2.80734 c 2.69701,-2.3797 3.99834,-2.80734 5.47885,-2.80734 0.96597,0 1.72064,0.33205 2.26399,0.99615 1.06558,1.23383 1.24333,3.26947 0,4.7091 -0.57354,0.66411 -1.37348,0.99616 -2.39983,0.99616 -1.11216,0 -1.5434,-0.29116 -1.85647,-1.85647 -0.22834,-0.98904 -0.38569,-1.132 -0.76975,-1.132 -0.63392,0 -1.17728,0.13584 -1.63008,0.40752 -0.42261,0.24149 -0.98106,0.6792 -1.67535,1.31311 l -3.62238,17.20633 h -6.52029 z"
         id="logo-meddlr"
         style="font-size:45.2798px;font-family:Lobster;-inkscape-font-specification:Lobster;fill:#ff8225;stroke-width:2.258;stroke-linejoin:round;stroke-opacity:0.909804"
         aria-label="Meddlr"
         transform="scale(0.8793262,1.1372344)" />
    </g>
  </g>
</svg>
