<?xml version="1.0" encoding="UTF-8" standalone="no"?>
<!-- Created with Inkscape (http://www.inkscape.org/) -->

<svg
   width="114.38985mm"
   height="61.667065mm"
   viewBox="0 0 114.38985 61.667065"
   version="1.1"
   id="svg1"
   xmlns="http://www.w3.org/2000/svg"
   xmlns:svg="http://www.w3.org/2000/svg">
  <defs
     id="defs1" />
     <style>
      @import url("https://fonts.googleapis.com/css?family=Lobster:400,400i,700,700i");
     </style>
  <g
     id="layer1"
     transform="translate(-7.3367092,-102.66144)">
    <g
       id="g2"
       transform="translate(-6.7916885,10.312885)"
       style="fill:#b43f3f;fill-opacity:1;stroke:none">
      <path
         id="logo-berry"
         style="fill:#b43f3f;fill-opacity:1;fill-rule:nonzero;stroke:none;stroke-width:2.11061;stroke-linecap:round;stroke-linejoin:round;stroke-dasharray:none;stroke-opacity:0.909804"
         d="m 41.226215,92.348592 c -2.806471,-0.01116 -8.73705,2.434545 -9.444235,11.609808 -0.305046,5.20784 0.508177,10.37823 0.674295,15.57374 0.213423,2.90576 0.314394,6.36175 0.167778,9.92569 -0.142027,3.45242 -0.515571,6.97059 -1.231902,10.13681 -2.635243,11.64792 -8.63767,11.54533 -11.933769,10.98042 -1.335896,-0.22896 -1.869788,-1.22761 -1.209142,-1.17957 2.308235,0.12311 3.236776,-1.66056 3.294035,-3.79154 0.05709,-2.13089 -1.462301,-3.87406 -3.453204,-3.85807 -1.605483,0.0908 -3.303227,1.0032 -3.955374,3.9441 -0.363246,9.34938 15.086598,14.68826 19.587311,-5.5086 0.751832,-3.37381 1.123319,-7.06266 1.26715,-10.61519 0.14804,-3.65648 0.05585,-7.19463 -0.119842,-10.16989 -0.0161,-5.03233 -0.306316,-8.862 -0.07966,-15.10314 0.418811,-11.532373 7.409309,-9.678479 9.468203,-8.348597 -1.619843,0.406317 -3.096808,1.44627 -3.210703,3.305665 -0.08238,1.595402 0.874438,3.228042 2.945993,3.427102 1.964295,-9e-5 3.750388,-1.20292 4.167322,-3.427102 0.215288,-1.13109 0.0017,-2.712344 -1.341524,-3.015318 -0.46985,-1.963043 -2.220633,-3.875926 -5.592731,-3.886354 z" />
      <text
         xml:space="preserve"
         style="font-style:normal;font-variant:normal;font-weight:normal;font-stretch:normal;font-size:45.2798px;font-family:Lobster;-inkscape-font-specification:Lobster;fill:#ff8225;fill-opacity:1;stroke:none;stroke-width:2.258;stroke-linecap:butt;stroke-linejoin:round;stroke-dasharray:none;stroke-opacity:0.909804"
         x="15.885357"
         y="123.9136"
         id="logo-meddlr"
         transform="scale(0.8793262,1.1372344)"><tspan
           id="tspan1"
           style="font-style:normal;font-variant:normal;font-weight:normal;font-stretch:normal;font-family:Lobster;-inkscape-font-specification:Lobster;fill:#ff8225;fill-opacity:1;stroke:none;stroke-width:2.258;stroke-linecap:butt;stroke-linejoin:round;stroke-dasharray:none;stroke-opacity:0.909804"
           x="15.885357"
           y="123.9136">Meddlr</tspan></text>
    </g>
  </g>
</svg>
