<svg width="5.3679018mm" height="33.491512mm" viewBox="0 0 5.3679018 33.491513" version="1.1" id="svg1" xml:space="preserve" xmlns="http://www.w3.org/2000/svg" xmlns:svg="http://www.w3.org/2000/svg">
  <path d="m 1.6701528,3.2422105 c 0,0 -0.15399,0.60388 -0.45054,0.79127 l -0.30168005,0.19063 0.14538005,0.10731 -0.0203,2.04884 0.37714,0.11103 -1.28789005,0.89018 3.34148005,0.0231 -1.26478,-0.88124 0.30406,-0.0753 -0.039,-2.11944 0.13572,-0.0655 c -0.19531,-0.13461 -0.22687,-0.0826 -0.33583,-0.27926 l -0.33346,-0.73124 -0.005,-2.66370993 c -0.0335,-0.0608 0.29719,-0.0285 1.4107,-0.0285 V 22.665501 l -0.35445,0.19348 0.15953,0.19124 -0.17925,0.27447 -0.23741,0.13184 0.10503,0.0872 -0.29607,0.19706 0.35382,0.16751 v 1.9521 l -0.3707,0.25384 0.002,0.11141 0.27956,0.20592 -0.25083,0.0986 -0.046,0.10242 v 5.54082 c -0.1412,0.17231 -0.17758,0.19349 0.0249,0.39526 0.0692,0.069 -0.24723,0.18048 -0.24723,0.18048 l 0.0843,0.21267 -0.002,0.23952 c 0,0 0.081,0.1574 1.46618,0.15788 1.35043,4.7e-4 1.25937,-0.15346 1.25937,-0.15346 l 0.01,-0.27289 0.0577,0.008 c 0,0 0.14161,-0.1174 0.0245,-0.19063 -0.11707,-0.0732 -0.1851,-0.0891 -0.1851,-0.0891 l -5.3e-4,-0.1148 c 0,0 0.0878,-0.0622 0.0754,-0.16148 -0.006,-0.0404 -0.0973,-0.16893 -0.0973,-0.16893 l -0.0113,-5.58033 -0.0423,-0.0799 -0.24749,-0.12909 0.21412,-0.17293 0.008,-0.0842 -0.44436,-0.33305 v -1.94193 l 0.36523,-0.15478 -0.27349,-0.17786 0.0974,-0.11467 -0.19528,-0.12292 -0.18733,-0.26907 0.14746,-0.16739 -0.1687,-0.18357 V 0.24878057 c 0,0 0.0243,-0.0926 -0.16399,-0.11088 -1.6513,0 -2.45572,-0.0298 -2.4298,0.048 z" id="light-pole"/>
  <g id="light" transform="translate(-114.84254,-241.39069)">
    <path d="m 87.515207,246.13265 c 0,0 0.14618,0.79163 0.84901,0.75624 0.70283,-0.0354 0.78767,-0.75627 0.78767,-0.75627 z" id="light-radius" transform="matrix(0.7293111,0,0,0.7293111,52.122851,70.116473)" class="light-radius"/>
    <path d="m 115.73761,248.99009 c 0,0 0.14618,0.79163 0.84902,0.75624 0.70283,-0.0354 0.78767,-0.75627 0.78767,-0.75627 z" id="light-fixture" class="light-fixture"/>
    <path d="m 87.515207,246.13265 c 0,0 0.14618,0.79163 0.84901,0.75624 0.70283,-0.0354 0.78767,-0.75627 0.78767,-0.75627 z" id="light-source" transform="matrix(0.58724734,0,0,0.58724734,64.666989,104.91355)" class="light-source"/>
  </g>
</svg>