<svg xmlns="http://www.w3.org/2000/svg" xmlns:xlink="http://www.w3.org/1999/xlink" xml:space="preserve" width="210mm" height="297mm" viewBox="0 0 210 297"><defs><filter id="d" width="2.167" height="3.522" x="-.584" y="-1.261" style="color-interpolation-filters:sRGB"><feGaussianBlur stdDeviation=".096"/></filter><filter id="c" width="2.968" height="5.253" x="-.984" y="-2.127" style="color-interpolation-filters:sRGB"><feGaussianBlur stdDeviation=".293"/></filter><radialGradient xlink:href="#a" id="b" cx="116.576" cy="259.38" r="2.684" fx="116.576" fy="259.38" gradientTransform="matrix(1.77934 0 0 6.48102 -91.045 -1416.773)" gradientUnits="userSpaceOnUse"/><linearGradient id="a"><stop offset=".082" style="stop-color:#eea;stop-opacity:0"/><stop offset=".137" style="stop-color:#80805e;stop-opacity:.49803922"/><stop offset=".683" style="stop-color:#131313;stop-opacity:1"/></linearGradient></defs><path d="M116.513 244.633s-.154.604-.45.791l-.303.19.146.108-.02 2.049.377.111-1.288.89 3.341.023-1.264-.881.304-.075-.04-2.12.136-.065c-.195-.135-.227-.083-.336-.28l-.333-.73-.005-2.664c-.034-.061.297-.029 1.41-.029v22.105l-.354.194.16.19-.18.275-.237.132.105.087-.296.197.354.168v1.952l-.37.254.001.111.28.206-.251.099-.046.102v5.541c-.141.172-.178.194.025.395.069.07-.247.18-.247.18l.084.214-.002.239s.08.157 1.466.158c1.35 0 1.26-.154 1.26-.154l.01-.272.057.008s.142-.118.025-.191c-.117-.073-.185-.09-.185-.09l-.001-.114s.088-.062.075-.161c-.006-.04-.097-.17-.097-.17l-.011-5.58-.042-.08-.248-.129.214-.173.008-.084-.444-.333v-1.942l.365-.155-.273-.177.097-.115-.195-.123-.188-.27.148-.166-.169-.184v-22.456s.024-.092-.164-.11c-1.651 0-2.456-.03-2.43.048z" style="fill:url(#b);fill-opacity:1;stroke:#000;stroke-width:.264583;stroke-linecap:round;stroke-linejoin:round;stroke-dasharray:none;stroke-opacity:1"/><path d="M87.515 246.133s.146.791.85.756c.702-.036.787-.756.787-.756z" style="mix-blend-mode:normal;fill:none;fill-opacity:.967222;stroke:#4aff2c;stroke-width:1.81393;stroke-linecap:round;stroke-linejoin:round;stroke-dasharray:none;stroke-opacity:.968627;filter:url(#c)" transform="translate(52.123 70.116)scale(.72931)"/><path d="M115.738 248.99s.146.792.849.756c.702-.035.787-.756.787-.756z" style="fill:#00f992;fill-opacity:1;stroke:#000;stroke-width:.264583;stroke-linecap:round;stroke-linejoin:round;stroke-dasharray:none;stroke-opacity:1"/><path d="M87.515 246.133s.146.791.85.756c.702-.036.787-.756.787-.756z" style="fill:none;fill-opacity:.967222;stroke:#a3ff94;stroke-width:1.45114;stroke-linecap:round;stroke-linejoin:round;stroke-dasharray:none;stroke-opacity:.840993;filter:url(#d)" transform="matrix(.58725 0 0 .58725 64.667 104.914)"/></svg>